<svg xmlns="http://www.w3.org/2000/svg" xmlns:xlink="http://www.w3.org/1999/xlink" width="1200" height="131" viewBox="0 0 1200 131">
  <defs>
    <clipPath id="clip-path">
      <rect id="長方形_629" data-name="長方形 629" width="1200" height="131" fill="#fcf8f5"/>
    </clipPath>
  </defs>
  <g id="グループ_742" data-name="グループ 742" clip-path="url(#clip-path)">
    <path id="パス_3272" data-name="パス 3272" d="M1200,131.2V0c-21.861,0-32.912,6.17-43.6,12.136-10.866,6.067-21.126,11.8-42.129,11.8s-31.265-5.729-42.129-11.8C1061.454,6.17,1050.4,0,1028.542,0S995.637,6.17,984.95,12.136c-10.861,6.067-21.122,11.8-42.122,11.8S911.566,18.2,900.7,12.136C890.016,6.17,878.966,0,857.108,0S824.2,6.17,813.516,12.136c-10.861,6.067-21.122,11.8-42.122,11.8s-31.259-5.729-42.123-11.8C718.586,6.17,707.538,0,685.678,0s-32.9,6.17-43.586,12.136c-10.861,6.067-21.12,11.8-42.116,11.8s-31.259-5.729-42.122-11.8C547.168,6.17,536.12,0,514.263,0S481.355,6.17,470.67,12.136c-10.864,6.067-21.124,11.8-42.125,11.8s-31.259-5.729-42.12-11.8C375.738,6.17,364.69,0,342.833,0s-32.905,6.17-43.59,12.136c-10.861,6.067-21.12,11.8-42.118,11.8S225.865,18.2,215,12.136C204.321,6.17,193.27,0,171.415,0s-32.9,6.17-43.588,12.136c-10.861,6.067-21.12,11.8-42.118,11.8S54.45,18.2,43.588,12.136C32.905,6.17,21.855,0,0,0V131.2" transform="translate(0 0.001)" fill="#fcf8f5"/>
  </g>
</svg>
