<svg xmlns="http://www.w3.org/2000/svg" xmlns:xlink="http://www.w3.org/1999/xlink" width="65.423" height="44.094" viewBox="0 0 65.423 44.094">
  <defs>
    <clipPath id="clip-path">
      <rect id="長方形_529" data-name="長方形 529" width="61.385" height="36.888" fill="none"/>
    </clipPath>
  </defs>
  <g id="グループ_599" data-name="グループ 599" transform="translate(4.495) rotate(7)">
    <g id="グループ_598" data-name="グループ 598" clip-path="url(#clip-path)">
      <path id="パス_1872" data-name="パス 1872" d="M59.447,60.511a.282.282,0,0,1-.049.009.273.273,0,0,1-.3-.247,33.94,33.94,0,0,0-1.06-6.34,29.844,29.844,0,0,0-5.235-10.239,12.49,12.49,0,0,0-6.548-3.769.272.272,0,1,1,.133-.528,13.013,13.013,0,0,1,6.824,3.938,30.034,30.034,0,0,1,5.35,10.451,34.5,34.5,0,0,1,1.079,6.438.273.273,0,0,1-.2.286" transform="translate(-36.676 -31.369)" fill="#9dc841"/>
      <path id="パス_1873" data-name="パス 1873" d="M32.572,35.875a10.578,10.578,0,0,0-1.354,6.61c.267,1.779,2.11,2.187,2.731.535a10.739,10.739,0,0,0,.187-2.5c.179-.029.866,1.615,1.7,1.821,1.94.48,2.15-1.093,1.985-2.185-.239-1.582-2.634-3.477-3.411-3.955-.642-.4-1.026-.569-1.285-.728-.182-.111-.343.061-.551.4" transform="translate(-24.784 -28.224)" fill="#9dc841"/>
      <path id="パス_1874" data-name="パス 1874" d="M40.586,16.727a10.1,10.1,0,0,0,6.659.122,1.477,1.477,0,0,0-.211-2.828,5.243,5.243,0,0,0-2.473.232c-.1-.188,1.008-.931.989-1.719a1.49,1.49,0,0,0-1.863-1.249c-1.041.368-2.462,2.917-2.887,3.6a7.612,7.612,0,0,0-.722,1.389c-.07.2.132.322.509.454" transform="translate(-31.906 -8.927)" fill="#34b2bf"/>
      <path id="パス_1875" data-name="パス 1875" d="M17.6,7.317A9.749,9.749,0,0,1,12.641,2.28,1.586,1.586,0,0,1,15.26.554c1.283,1.373,1.779,1.928,1.923,1.875.105-.032.342-1.457.777-1.948a1.663,1.663,0,0,1,2.548.685c.407,1.029-.86,3.9-1.226,4.695a8.269,8.269,0,0,1-.854,1.513c-.149.194-.421.129-.834-.056" transform="translate(-9.974 0)" fill="#9dc841"/>
      <path id="パス_1876" data-name="パス 1876" d="M8.315,30.315a11.092,11.092,0,0,1-5.948,4c-2,.429-2.921-1.334-2.022-2.389A5.072,5.072,0,0,1,3.262,30.42c-.033-.119-2-.374-2.436-.854-.4-.431-.424-1.236.8-1.522s4.558.583,5.377.9a8.583,8.583,0,0,1,1.53.721c.189.124.067.335-.216.654" transform="translate(0 -22.289)" fill="#34b2bf"/>
      <path id="パス_1877" data-name="パス 1877" d="M107.268,69.113a5.371,5.371,0,0,0-7.8-.654,8.889,8.889,0,0,1-3.534,2.467c-.641.232.494.5,1.16.743.882.315,3.438.821,4.883,2.938,2.219,3.25,1.528,10.47,5.845,12.975,5.78,3.354,10.725-.886,13.666-1.519,1.864-.4,4.341.885,5.325,2.009,2.583,2.952,1.76,3.059,3.35-.184,1.141-2.326.981-2.022-1.386-1.963-2.589.065-4.447-1.269-7.57-3.589-1.962-1.458-4.615-3.357-6.891-5.249-1.892-1.573-4.962-5.5-7.048-7.974" transform="translate(-76.247 -53.416)" fill="#d1a57d"/>
      <path id="パス_1878" data-name="パス 1878" d="M167.989,84.164c-.305-.933,4.464-7.225,8.768-8.387a13.7,13.7,0,0,1,11.9,2.423c3.586,2.669,5.551,6.577,6.5,8.142.1.281-2.063-.71-3.966-1.4a36.2,36.2,0,0,0-11.03-1.593,21.255,21.255,0,0,0-9.4,2.085c-2.374.914-2.267.275-2.773-1.271" transform="translate(-133.773 -59.968)" fill="#d1a57d"/>
    </g>
  </g>
</svg>
